<svg xmlns="http://www.w3.org/2000/svg" xmlns:xlink="http://www.w3.org/1999/xlink" width="50" height="48" viewBox="0 0 50 48"><defs><path id="cpzqa" d="M290.926 1441.588v16.941c0 .52-.414.941-.926.941a.933.933 0 0 1-.926-.94v-16.942c0-.52.414-.941.926-.941s.926.422.926.94zm14.814 6.588v3.765c0 .52-.413.941-.925.941h-1.852v1.882c0 .52-.414.942-.926.942h-3.704a.933.933 0 0 1-.926-.942v-1.882h-1.852a.933.933 0 0 1-.925-.941v-3.765c0-.52.413-.941.925-.941h1.852v-1.882c0-.52.414-.942.926-.942h3.704c.512 0 .926.422.926.942v1.882h1.852c.512 0 .925.422.925.941zM303.89 1451v-1.883h-1.852a.933.933 0 0 1-.926-.94v-1.883h-1.852v1.882c0 .52-.414.941-.926.941h-1.852V1451h1.852c.512 0 .926.421.926.94v1.883h1.852v-1.882c0-.52.414-.941.926-.941zm-18.519-2.824v3.765c0 .52-.414.941-.926.941h-9.259a.933.933 0 0 1-.926-.941v-3.765c0-.52.414-.941.926-.941h9.26c.511 0 .925.422.925.941zm-1.852.941h-7.407V1451h7.407zm31.482-16.94v5.646c0 .52-.414.941-.926.941h-2.778v22.007l1.34.68c.314.16.512.486.512.843v3.764c0 .52-.414.942-.926.942h-44.444a.933.933 0 0 1-.926-.942v-3.764c0-.357.198-.683.512-.842l1.34-.681v-22.007h-2.778a.933.933 0 0 1-.926-.94v-5.648c0-.52.414-.94.926-.94h3.704v-5.648c0-1.557 1.246-2.823 2.777-2.823h.926c1.532 0 2.778 1.266 2.778 2.823v5.647h27.778v-5.647c0-1.557 1.246-2.823 2.778-2.823h.925c1.532 0 2.778 1.266 2.778 2.823v5.647h3.704c.512 0 .926.422.926.941zm-9.26-6.589v1.882h2.778v-1.882a.935.935 0 0 0-.926-.941h-.925a.935.935 0 0 0-.927.941zm0 5.647h2.778v-1.882h-2.778zm-34.259-3.765h2.778v-1.882a.935.935 0 0 0-.926-.941h-.926a.935.935 0 0 0-.926.941zm0 3.765h2.778v-1.882h-2.778zm39.815 31.64l-1.34-.68a.944.944 0 0 1-.512-.842v-22.589h-38.889v22.589a.942.942 0 0 1-.512.841l-1.34.682v2.241h42.593zm1.852-25.993v-3.765h-46.296v3.765zm-11.111-11.294c0 .52-.414.941-.926.941h-8.333a.922.922 0 0 1-.77-.42l-.803-1.222-1.253 3.822a.925.925 0 0 1-.878.644.925.925 0 0 1-.878-.644l-1.9-5.792-.974 2.969a.925.925 0 0 1-.878.643h-5.555a.933.933 0 0 1-.926-.94c0-.52.414-.942.926-.942h4.888l1.641-5.003a.925.925 0 0 1 .878-.644c.4 0 .752.259.878.643l1.9 5.793.974-2.97a.92.92 0 1 1 1.648-.224l1.577 2.405h7.838c.512 0 .926.422.926.941zm-29.63 35.765h1.852v1.882h-1.852zm35.185-1.883v3.765h-31.481v-1.882h29.63v-1.883z"/></defs><g><g transform="translate(-265 -1419)"><use xlink:href="#cpzqa"/></g></g></svg>