<svg xmlns="http://www.w3.org/2000/svg" xmlns:xlink="http://www.w3.org/1999/xlink" width="50" height="50" viewBox="0 0 50 50"><defs><path id="rnvxa" d="M315 1341.125v35.416c0 1.726-1.4 3.125-3.125 3.125h-2.083v-2.083h2.083c.575 0 1.042-.466 1.042-1.042v-35.416c0-.576-.467-1.042-1.042-1.042h-43.75c-.575 0-1.042.466-1.042 1.042v35.416c0 .576.467 1.042 1.042 1.042h25v2.083h-25a3.125 3.125 0 0 1-3.125-3.125v-35.416c0-1.726 1.399-3.125 3.125-3.125h43.75c1.726 0 3.125 1.399 3.125 3.125zm-5.208 8.333v9.375h-2.084v-8.42a6.267 6.267 0 0 1-5.122-5.122h-25.173a6.267 6.267 0 0 1-5.121 5.122v16.84a6.268 6.268 0 0 1 5.121 5.122H290v2.083h-13.542a1.042 1.042 0 0 1-1.041-1.041 4.167 4.167 0 0 0-4.167-4.167 1.042 1.042 0 0 1-1.042-1.042v-18.75c0-.575.467-1.042 1.042-1.042a4.167 4.167 0 0 0 4.167-4.166c0-.576.466-1.042 1.041-1.042h27.083c.576 0 1.042.466 1.042 1.042a4.167 4.167 0 0 0 4.167 4.166c.575 0 1.042.467 1.042 1.042zm1.041 19.792a9.363 9.363 0 0 1-3.125 6.981v10.727a1.042 1.042 0 0 1-1.692.814l-4.558-3.646-4.557 3.646a1.041 1.041 0 0 1-1.693-.814v-10.72a9.375 9.375 0 1 1 15.625-6.988zm-9.375 9.375a9.336 9.336 0 0 1-4.166-.975v7.14l3.515-2.812c.38-.305.922-.305 1.302 0l3.516 2.812v-7.144a9.348 9.348 0 0 1-4.167.979zm7.292-9.375a7.3 7.3 0 0 0-7.292-7.292 7.292 7.292 0 1 0 7.292 7.292zm-7.292-19.792v4.167c0 .575-.466 1.041-1.041 1.041h-20.834a1.042 1.042 0 0 1-1.041-1.041v-4.167c0-.575.466-1.042 1.041-1.042h20.834c.575 0 1.041.467 1.041 1.042zm-2.083 1.042h-18.75v2.083h18.75zm-21.875 7.291h2.083v2.084H277.5zm4.167 0h2.083v2.084h-2.083zm-4.167 4.167H290v2.083h-12.5zm29.167 7.292a5.208 5.208 0 1 1-10.417 0 5.208 5.208 0 0 1 10.417 0zm-2.084 0a3.125 3.125 0 1 0-6.25 0 3.125 3.125 0 0 0 6.25 0zm-34.375 3.125h2.084v2.083h-2.084zm37.5-29.167h2.084v2.083h-2.084zm-37.5 0h2.084v2.083h-2.084z"/></defs><g><g transform="translate(-265 -1338)"><use xlink:href="#rnvxa"/></g></g></svg>