<svg xmlns="http://www.w3.org/2000/svg" xmlns:xlink="http://www.w3.org/1999/xlink" width="50" height="50" viewBox="0 0 50 50"><defs><path id="lcwfa" d="M314.99 1592.066l-.704 4.93a.83.83 0 0 1-.939.703l-3.227-.46a.806.806 0 0 0-.83.398.816.816 0 0 0 .05.92l1.956 2.61a.83.83 0 0 1-.166 1.161l-3.983 2.988a.83.83 0 0 1-1.161-.167l-1.956-2.608a.83.83 0 0 0-1.485.381l-.46 3.228a.83.83 0 0 1-.94.705l-4.928-.705a.83.83 0 0 1-.703-.939l.46-3.228a.83.83 0 0 0-1.318-.781l-2.608 1.956a.83.83 0 0 1-1.162-.166l-2.986-3.984a.83.83 0 0 1 .166-1.161l2.607-1.956a.83.83 0 0 0-.38-1.486l-3.228-.461a.83.83 0 0 1-.704-.94l.704-4.929a.83.83 0 0 1 .94-.704l3.226.461c.332.048.66-.11.83-.399a.813.813 0 0 0-.05-.921l-1.955-2.608a.83.83 0 0 1-.159-.615c.01-.031.02-.061.033-.09a14.06 14.06 0 0 0-11.856 6.581c-4.132 6.578-2.15 15.26 4.425 19.394a5.584 5.584 0 0 1 2.631 4.684v3.353c0 .917.743 1.66 1.66 1.66h6.637a1.66 1.66 0 0 0 1.659-1.66v-3.284a5.717 5.717 0 0 1 2.676-4.781c.617-.4 1.201-.847 1.748-1.337l1.107 1.236a15.918 15.918 0 0 1-1.953 1.494 4.067 4.067 0 0 0-1.92 3.388v3.284a3.309 3.309 0 0 1-1.658 2.858v4.611a3.319 3.319 0 0 1-3.319 3.32h-3.318a3.319 3.319 0 0 1-3.319-3.32v-4.61a3.309 3.309 0 0 1-1.659-2.859v-2.365l-1.288 1.293a.83.83 0 0 1-1.057.096l-2.292-1.577-.574 2.728a.83.83 0 0 1-.812.66h-3.318a.83.83 0 0 1-.812-.665l-.573-2.728-2.292 1.581a.83.83 0 0 1-1.058-.096l-2.489-2.49a.83.83 0 0 1-.096-1.057l1.576-2.293-2.727-.573a.83.83 0 0 1-.658-.813v-3.32c-.001-.39.27-.728.652-.812l2.727-.573-1.576-2.293a.83.83 0 0 1 .096-1.057l2.489-2.49a.83.83 0 0 1 1.057-.096l2.297 1.584.573-2.727a.83.83 0 0 1 .811-.664h.25c.01-.233.02-.466.041-.701a15.765 15.765 0 0 1 13.899-14.139c1.128-.12 2.265-.12 3.393 0l2.493-1.871a.83.83 0 0 1 1.161.165l1.956 2.61a.829.829 0 0 0 1.485-.381l.461-3.229a.83.83 0 0 1 .94-.703l4.924.703a.83.83 0 0 1 .704.94l-.461 3.228a.83.83 0 0 0 1.322.781l2.608-1.957a.83.83 0 0 1 1.161.166l2.987 3.984a.83.83 0 0 1-.166 1.162l-2.608 1.956a.83.83 0 0 0 .38 1.486l3.228.46.001.002a.83.83 0 0 1 .704.94zm-28.2 30.124h6.637v-1.66h-6.637zm0 2.49c0 .917.742 1.66 1.659 1.66h3.318a1.66 1.66 0 0 0 1.66-1.66v-.83h-6.637zm-10.443-12.472a4.98 4.98 0 1 1-1.179-9.889 15.805 15.805 0 0 1-.657-2.814l-.146.69a1.657 1.657 0 0 1-2.564 1.026l-1.725-1.189-1.511 1.51 1.188 1.727a1.658 1.658 0 0 1-1.025 2.562l-2.068.436v1.972l2.068.435a1.661 1.661 0 0 1 1.024 2.567l-1.187 1.723 1.511 1.509 1.724-1.185a1.658 1.658 0 0 1 2.565 1.024l.435 2.07h1.972l.435-2.073a1.66 1.66 0 0 1 2.565-1.025l1.723 1.189 1.78-1.777a4.052 4.052 0 0 0-1.672-2.124 15.645 15.645 0 0 1-1.418-1.033 4.978 4.978 0 0 1-3.838 2.669zm-.53-8.275h-.031a3.314 3.314 0 0 0-1.129 6.434 3.314 3.314 0 0 0 4.24-1.997 15.71 15.71 0 0 1-3.08-4.437zm37.411-11.282l-2.405-.343a2.489 2.489 0 0 1-1.141-4.457l1.944-1.458-1.991-2.656-1.944 1.458a2.487 2.487 0 0 1-3.957-2.344l.343-2.406-3.284-.47-.344 2.407a2.49 2.49 0 0 1-4.455 1.142l-1.458-1.945-2.655 1.992 1.463 1.946a2.49 2.49 0 0 1-2.344 3.959l-2.406-.344-.47 3.285 2.406.344a2.49 2.49 0 0 1 1.141 4.456l-1.943 1.46 1.991 2.655 1.944-1.458a2.49 2.49 0 0 1 3.957 2.345l-.343 2.406 3.284.47.336-2.41a2.49 2.49 0 0 1 4.455-1.141l1.459 1.943 2.654-1.991-1.457-1.945a2.49 2.49 0 0 1 2.343-3.958l2.405.343zm-5.917-.117a6.638 6.638 0 1 1-13.274 0 6.638 6.638 0 0 1 6.637-6.64 6.645 6.645 0 0 1 6.637 6.64zm-1.66 0a4.979 4.979 0 1 0-9.956-.002 4.979 4.979 0 0 0 9.957.002zm-16.373 22.188h1.66v2.49h-1.66zm1.66-1.66h-1.66a5.298 5.298 0 0 0-3.4-4.946 11.615 11.615 0 0 1-5.602-4.63c-3.42-5.429-1.792-12.603 3.636-16.023l.887 1.404a9.958 9.958 0 0 0-3.97 4.805c-2 5.123.529 10.898 5.65 12.9a6.943 6.943 0 0 1 4.459 6.49zm14.933-4.15h5.807v1.66h-5.807zm-1.36 5.617l1.061-1.276 4.978 4.15-1.062 1.274zm-3.618 1.022h1.66v5.81h-1.66zm-35.045-23.212l6.636-1.66.403 1.61-6.637 1.659zm1.378-8.478l.964-1.35 5.807 4.15-.964 1.35zm7.108-5.45l1.608-.411 1.696 6.638-1.607.411z"/></defs><g><g transform="translate(-265 -1578)"><use xlink:href="#lcwfa"/></g></g></svg>