<svg xmlns="http://www.w3.org/2000/svg" xmlns:xlink="http://www.w3.org/1999/xlink" width="46" height="50" viewBox="0 0 46 50"><defs><path id="59cta" d="M636.531 689.455c.994 2.124.206 4.657-1.792 5.765l-3.59 1.991a1.463 1.463 0 0 0-.73 1.049l-.701 4.183c-.391 2.33-2.452 3.895-4.694 3.564l-4.024-.595a1.367 1.367 0 0 0-1.179.4l-2.92 2.954a4.067 4.067 0 0 1-2.901 1.233 4.064 4.064 0 0 1-2.9-1.233l-2.922-2.954a1.365 1.365 0 0 0-1.179-.4l-4.024.595c-.201.03-.4.044-.598.044-2 0-3.74-1.487-4.095-3.608l-.703-4.184a1.462 1.462 0 0 0-.728-1.048l-3.59-1.99c-2-1.11-2.787-3.642-1.793-5.767l1.785-3.816c.192-.41.192-.884 0-1.295l-1.785-3.816c-.994-2.126-.206-4.658 1.793-5.767l3.59-1.99c.387-.215.653-.597.728-1.049l.703-4.184c.39-2.329 2.452-3.895 4.693-3.563l4.024.595c.434.064.864-.082 1.179-.4l2.921-2.954c1.627-1.645 4.175-1.645 5.801 0l2.921 2.953c.315.319.745.464 1.18.4l4.023-.595c2.24-.33 4.303 1.235 4.694 3.564l.702 4.184c.076.451.34.833.728 1.048l3.59 1.991c2 1.109 2.787 3.641 1.793 5.766l-1.785 3.816a1.525 1.525 0 0 0 0 1.296zm-2.48 1.266l-1.785-3.816a4.51 4.51 0 0 1 0-3.83l1.785-3.816c.337-.719.07-1.576-.606-1.95l-3.59-1.991c-1.145-.635-1.93-1.764-2.154-3.099l-.702-4.183c-.133-.788-.83-1.318-1.588-1.206l-4.025.595c-1.282.19-2.553-.242-3.484-1.184l-2.921-2.953a1.363 1.363 0 0 0-1.963 0l-2.921 2.953c-.932.942-2.202 1.374-3.485 1.184l-4.024-.595c-.758-.112-1.456.418-1.588 1.206l-.702 4.183c-.224 1.335-1.01 2.464-2.154 3.099l-3.59 1.99c-.676.375-.943 1.232-.606 1.951l1.784 3.817a4.506 4.506 0 0 1 0 3.829l-1.784 3.816c-.337.719-.07 1.576.606 1.95l3.59 1.992c1.145.635 1.93 1.764 2.154 3.098l.702 4.184c.133.788.83 1.317 1.588 1.205l4.024-.595a4.048 4.048 0 0 1 3.485 1.183l2.921 2.954c.55.556 1.413.556 1.963 0l2.921-2.953c.932-.941 2.201-1.373 3.485-1.184l4.024.596c.758.111 1.456-.418 1.588-1.206l.702-4.184c.224-1.334 1.009-2.463 2.154-3.098l3.59-1.991c.676-.375.943-1.232.606-1.951zm-9.967-14.23l-18.217 19.038c-.27.282-.623.423-.976.423s-.706-.14-.976-.423a1.488 1.488 0 0 1 0-2.04l18.217-19.038a1.338 1.338 0 0 1 1.952 0 1.489 1.489 0 0 1 0 2.04zm-10.544.806c0 2.916-2.27 5.29-5.061 5.29-2.79 0-5.06-2.374-5.06-5.29s2.27-5.288 5.06-5.288c2.79 0 5.06 2.372 5.06 5.288zm-2.76 0c0-1.325-1.033-2.403-2.301-2.403-1.268 0-2.3 1.078-2.3 2.403 0 1.326 1.032 2.404 2.3 2.404 1.268 0 2.3-1.078 2.3-2.404zm13.8 15.386c0 2.916-2.27 5.29-5.06 5.29-2.79 0-5.06-2.374-5.06-5.29s2.27-5.289 5.06-5.289c2.79 0 5.06 2.373 5.06 5.289zm-2.76 0c0-1.326-1.032-2.404-2.3-2.404-1.268 0-2.3 1.078-2.3 2.404 0 1.326 1.032 2.404 2.3 2.404 1.268 0 2.3-1.078 2.3-2.404z"/></defs><g><g transform="translate(-591 -660)"><use xlink:href="#59cta"/></g></g></svg>