<svg xmlns="http://www.w3.org/2000/svg" xmlns:xlink="http://www.w3.org/1999/xlink" width="45" height="50" viewBox="0 0 45 50"><defs><path id="mqzha" d="M1416.195 695.403l-5.556-3.12 4.69-2.714c.755-.353.988-1.337.56-2.06-.437-.741-1.38-.898-2.095-.493l-6.254 3.56-9.94-5.62 9.94-5.562 6.254 3.554c.195.139.446.22.726.22.53 0 1.005-.244 1.368-.706.419-.735.196-1.708-.559-2.061l-4.69-2.715 5.556-3.119c.724-.405.973-1.314.559-2.06-.396-.718-1.376-.967-2.123-.544l-5.584 3.148-.083-5.429a1.522 1.522 0 0 0-1.536-1.516c-.865 0-1.542.73-1.535 1.516l.055 7.165-9.883 5.562v-11.286l6.226-3.449c.726-.4 1.043-1.331.614-2.06-.436-.741-1.331-.961-2.094-.545l-4.746 2.605v-6.158c0-.84-.698-1.517-1.564-1.517-.865 0-1.536.677-1.536 1.517v6.215l-4.913-2.662c-.766-.41-1.637-.179-2.067.544-.436.741-.165 1.65.586 2.061l6.394 3.502v11.175l-10.107-5.665.056-7.004c.084-.787-.642-1.516-1.507-1.516h-.056c-.81 0-1.527.677-1.536 1.516l-.056 5.267-5.444-3.038c-.76-.429-1.698-.174-2.094.538-.415.752-.2 1.638.558 2.066l5.5 3.09-4.802 2.796c-.753.353-.989 1.337-.53 2.06.295.47.725.707 1.312.707.307 0 .562-.076.81-.22l6.282-3.606 10.079 5.614-10.08 5.672-6.282-3.612c-.754-.428-1.726-.225-2.121.492-.415.747-.19 1.644.53 2.061l4.803 2.766-5.5 3.12c-.758.428-1.003 1.331-.56 2.066.31.51.727.758 1.313.758.14 0 .418-.081.782-.22l5.444-3.038.056 5.267c.009.839.726 1.487 1.536 1.487h.056c.865 0 1.514-.7 1.507-1.545l-.056-6.998 10.107-5.614v11.119l-6.394 3.501c-.763.417-1.03 1.325-.586 2.06.31.515.726.764 1.313.764.279 0 .536-.045.754-.167l4.913-2.709v6.32c0 .84.67 1.494 1.536 1.494s1.564-.655 1.564-1.494v-6.216l4.746 2.605c.217.122.474.167.726.167.614 0 1.067-.243 1.368-.763.424-.73.15-1.644-.614-2.06l-6.226-3.392V687.56l9.883 5.563-.055 7.107a1.53 1.53 0 0 0 1.535 1.545c.866 0 1.523-.648 1.536-1.487l.083-5.458 5.584 3.177c.216.122.503.163.81.163.587 0 1.017-.238 1.313-.707.458-.723.165-1.655-.559-2.06z"/></defs><g><g transform="translate(-1372 -660)"><use xlink:href="#mqzha"/></g></g></svg>