<svg xmlns="http://www.w3.org/2000/svg" xmlns:xlink="http://www.w3.org/1999/xlink" width="50" height="50" viewBox="0 0 50 50"><defs><path id="vu60a" d="M300.61 1677.857v5.831a.834.834 0 0 1-.414.72l-4.969 2.916a.824.824 0 0 1-.834 0l-4.969-2.916a.834.834 0 0 1-.414-.72v-5.831c0-.297.159-.572.414-.72l4.969-2.916a.824.824 0 0 1 .834 0l4.969 2.916a.833.833 0 0 1 .414.72zm-1.656.478l-4.14-2.43-4.141 2.43v4.875l4.14 2.43 4.14-2.43zm14.243 10.364l.433.25c1.19.69 1.597 2.219.91 3.415a2.478 2.478 0 0 1-3.394.917l-.433-.25a2.602 2.602 0 0 1-1.97 3.1 2.586 2.586 0 0 1-3.082-1.983l-1.27-4.787-3.018-1.754-4.075 2.391v3.482l3.483 3.508a2.612 2.612 0 0 1 0 3.677 2.632 2.632 0 0 1-3.483.158v.5c0 1.38-1.113 2.499-2.485 2.499a2.492 2.492 0 0 1-2.484-2.5v-.5a2.632 2.632 0 0 1-3.484-.16 2.612 2.612 0 0 1 0-3.677l3.484-3.505v-3.482l-4.072-2.39-3.017 1.753-1.274 4.787a2.585 2.585 0 0 1-2.973 1.913 2.6 2.6 0 0 1-2.075-3.029l-.433.25c-.075.044-.155.071-.233.107v2.398a7.533 7.533 0 0 1 0 9.425 7.422 7.422 0 0 1-10.481 1.12c-3.202-2.604-3.7-7.324-1.112-10.545v-31.954c0-3.222 2.596-5.833 5.798-5.833s5.798 2.611 5.798 5.833v4.603c.078.036.16.063.234.107l.433.25a2.601 2.601 0 0 1 1.872-2.948 2.584 2.584 0 0 1 3.172 1.83l1.27 4.79 2.78 1.615 4.313-2.533v-3.203l-3.484-3.509a2.612 2.612 0 0 1 0-3.677 2.632 2.632 0 0 1 3.484-.157v-.5c0-1.38 1.112-2.5 2.484-2.5a2.492 2.492 0 0 1 2.485 2.5v.5a2.632 2.632 0 0 1 3.483.16 2.612 2.612 0 0 1 0 3.678l-3.483 3.505v3.203l4.312 2.533 2.777-1.618 1.274-4.787a2.586 2.586 0 0 1 3.08-1.984 2.602 2.602 0 0 1 1.972 3.099l.434-.25.002-.001a2.476 2.476 0 0 1 3.393.917l.001.003a2.508 2.508 0 0 1-.912 3.413l-.434.25a2.604 2.604 0 0 1 1.682 3.265 2.582 2.582 0 0 1-3.246 1.692l-4.759-1.286-2.952 1.714v4.81l2.957 1.71 4.759-1.281a2.581 2.581 0 0 1 3.1 1.618 2.604 2.604 0 0 1-1.541 3.335zm-36.395 7.943a.836.836 0 0 1-.207-.55v-2.563a2.461 2.461 0 0 1-1.502-1.163 2.366 2.366 0 0 1-.154-.341v5.15a4.163 4.163 0 0 1 1.658 3.341c-.008 2.294-1.862 4.147-4.142 4.14a4.13 4.13 0 0 1-3.322-1.668 4.17 4.17 0 0 1 .838-5.814v-33.34a2.492 2.492 0 0 1 2.483-2.499 2.492 2.492 0 0 1 2.485 2.498v5.965c.043-.117.094-.232.154-.341a2.463 2.463 0 0 1 1.502-1.162v-4.462c0-2.3-1.853-4.165-4.14-4.165s-4.14 1.865-4.14 4.165v32.259a.836.836 0 0 1-.207.55 5.807 5.807 0 0 0-1.4 4.638 5.84 5.84 0 0 0 5.08 5.004 5.726 5.726 0 0 0 4.53-1.448h.003a5.845 5.845 0 0 0 .482-8.194zm-.77-12.633c.178-.101.367-.18.563-.236v-5.722a2.613 2.613 0 0 1-.563-.236 2.569 2.569 0 0 1-1.093-1.28v8.753c.211-.538.596-.989 1.093-1.28zm-1.093 3.223v2.984c.198-.53.571-.977 1.057-1.265l.434-.25a2.584 2.584 0 0 1-1.49-1.47zm1.495-14.11l-.433-.25a2.472 2.472 0 0 1-1.062-1.265v2.985c.27-.681.813-1.215 1.495-1.47zm-5.216 25.217a2.508 2.508 0 0 0 0 4.332 2.476 2.476 0 0 0 3.392-.919 2.508 2.508 0 0 0-.913-3.413.834.834 0 0 1-.414-.72v-1.295h-1.656v1.296a.834.834 0 0 1-.414.72zm2.065-3.681v-30.825a.83.83 0 0 0-.828-.833.83.83 0 0 0-.828.833v30.825zm39.483-9.206a.905.905 0 0 0-.704-.093l-5.09 1.371a.836.836 0 0 1-.628-.083l-3.664-2.128a.834.834 0 0 1-.414-.721v-5.772c0-.298.158-.573.414-.721l3.664-2.125c.19-.11.416-.14.628-.083l5.09 1.37a.935.935 0 0 0 .481-1.804l-1.702-.462a.836.836 0 0 1-.2-1.526l2.153-1.25a.836.836 0 0 0 .303-1.138.825.825 0 0 0-1.13-.305l-2.154 1.25a.825.825 0 0 1-.628.083.834.834 0 0 1-.585-1.02l.455-1.707a.928.928 0 1 0-1.795-.483l-1.363 5.12a.838.838 0 0 1-.385.506l-3.494 2.029a.824.824 0 0 1-.828 0l-5.134-3.016a.834.834 0 0 1-.414-.719V1668c0-.221.087-.433.242-.59l3.727-3.748a.938.938 0 0 0 0-1.321.925.925 0 0 0-1.314 0l-1.242 1.25a.825.825 0 0 1-.585.243.83.83 0 0 1-.828-.833v-2.5a.83.83 0 0 0-.828-.832.83.83 0 0 0-.828.833v2.5c0 .22-.088.432-.243.588a.824.824 0 0 1-1.171 0l-1.242-1.25a.925.925 0 0 0-1.313 0 .938.938 0 0 0 0 1.322l3.726 3.749a.836.836 0 0 1 .243.589v4.029c-.001.296-.159.57-.414.719l-5.135 3.015a.824.824 0 0 1-.828 0l-3.495-2.028a.838.838 0 0 1-.386-.507l-1.363-5.12a.932.932 0 0 0-1.138-.66.936.936 0 0 0-.656 1.143l.453 1.71a.837.837 0 0 1-.083.632.825.825 0 0 1-1.131.305l-2.153-1.25-.01-.005a.825.825 0 0 0-1.13.312.836.836 0 0 0 .311 1.136l2.153 1.25a.834.834 0 0 1-.2 1.526l-1.697.457a.937.937 0 0 0-.224 1.708.91.91 0 0 0 .705.093l5.09-1.37a.825.825 0 0 1 .628.083l3.664 2.128a.834.834 0 0 1 .414.72v5.773a.834.834 0 0 1-.414.721l-3.664 2.124a.837.837 0 0 1-.628.084l-5.09-1.371a.935.935 0 0 0-.481 1.804l1.698.46a.836.836 0 0 1 .2 1.526l-2.154 1.25a.836.836 0 0 0-.3 1.13c.225.4.73.54 1.128.313l2.154-1.25c.19-.11.416-.14.628-.083.442.119.704.576.585 1.02l-.455 1.707a.928.928 0 1 0 1.794.483l1.363-5.119a.839.839 0 0 1 .386-.506l3.732-2.167a.83.83 0 0 1 .828 0l4.9 2.876a.834.834 0 0 1 .414.72v4.305c0 .22-.087.433-.242.589l-3.727 3.749a.938.938 0 0 0 0 1.321.925.925 0 0 0 1.314 0l1.242-1.25a.826.826 0 0 1 1.413.59v2.499c0 .46.371.833.828.833a.83.83 0 0 0 .829-.833v-2.5c0-.22.087-.432.242-.588a.825.825 0 0 1 1.171 0l1.242 1.25a.925.925 0 0 0 1.313 0 .938.938 0 0 0 0-1.322l-3.726-3.75a.835.835 0 0 1-.242-.588v-4.305c0-.297.158-.571.414-.72l4.9-2.876a.823.823 0 0 1 .828 0l3.732 2.166c.19.11.328.293.385.506l1.364 5.118a.93.93 0 0 0 1.138.66.936.936 0 0 0 .657-1.143l-.456-1.707a.838.838 0 0 1 .083-.633.825.825 0 0 1 1.131-.305l2.153 1.25a.81.81 0 0 0 .629.084.836.836 0 0 0 .199-1.526l-2.153-1.25a.834.834 0 0 1 .2-1.526l1.697-.458a.937.937 0 0 0 .224-1.708zm-30.014-.421l2.952-1.714v-4.81l-2.952-1.714-4.5 1.212v5.813z"/></defs><g><g transform="translate(-265 -1658)"><use xlink:href="#vu60a"/></g></g></svg>